<?xml version="1.0" encoding="utf-8"?>
<!-- Generator: Adobe Illustrator 24.2.3, SVG Export Plug-In . SVG Version: 6.00 Build 0)  -->
<svg version="1.1" id="Ebene_1" xmlns="http://www.w3.org/2000/svg" xmlns:xlink="http://www.w3.org/1999/xlink" x="0px" y="0px"
	 viewBox="0 0 111.69 28.35" style="enable-background:new 0 0 111.69 28.35;" xml:space="preserve">
<style type="text/css">
	.st0{fill:#FFFFFF;}
</style>
<g>
	<g>
		<path class="st0" d="M90.74,8.93c0-1.48,1.2-2.69,2.67-2.69l12.33,0c1.91,0,3.1-1.27,3.1-2.84c0-1.57-1.19-2.84-3.1-2.84l-12.09,0
			c-4.89,0-8.59,3.75-8.59,8.36c0,4.61,3.7,8.36,8.59,8.36h9.68c1.47,0,2.67,1.2,2.67,2.69c0,1.48-1.2,2.69-2.67,2.69l-12.34,0
			c-1.91,0-3.1,1.27-3.1,2.84c0,1.57,1.19,2.84,3.1,2.84l12.09,0c4.89,0,8.59-3.75,8.59-8.36s-3.7-8.36-8.59-8.36h-9.68
			C91.94,11.62,90.74,10.41,90.74,8.93L90.74,8.93z M84.6,23.85L72.1,2.21c-0.33-0.57-0.75-0.99-1.21-1.27c0,0,0,0,0,0
			c0,0-0.01,0-0.01-0.01c-0.33-0.19-0.68-0.31-1.04-0.36c-0.01,0-0.01,0-0.02,0c-0.07-0.01-0.14-0.01-0.21-0.02
			c-0.04,0-0.08,0-0.11,0c-0.04,0-0.08,0-0.11,0c-0.07,0-0.14,0.01-0.21,0.02c-0.01,0-0.01,0-0.02,0c-0.36,0.04-0.71,0.16-1.04,0.36
			c0,0-0.01,0-0.01,0.01c0,0,0,0,0,0c-0.46,0.27-0.88,0.69-1.21,1.27l-12.5,21.65c-0.96,1.65-0.45,3.32,0.91,4.11
			c1.36,0.78,3.05,0.39,4.01-1.27L69.49,9.04l10.19,17.65c0.96,1.65,2.65,2.05,4.01,1.27C85.05,27.17,85.55,25.51,84.6,23.85
			L84.6,23.85z M58.71,3.41c0-1.57-1.19-2.84-3.1-2.84H31.45c-1.91,0-3.1,1.27-3.1,2.84c0,1.57,1.19,2.84,3.1,2.84l9.24,0l0,19
			c0,1.91,1.27,3.1,2.84,3.1s2.84-1.19,2.84-3.1l0-19l9.24,0C57.52,6.25,58.71,4.97,58.71,3.41L58.71,3.41z M28.35,14.17
			C28.35,6.36,21.99,0,14.17,0C6.36,0,0,6.36,0,14.17c0,8.35,6.33,14.17,15.41,14.17h5.09c2.14,0,3.6-1.2,3.6-2.84
			c0-1.57-1.19-2.84-3.1-2.84l-5.58,0c-4.61,0-7.95-2.03-9.19-5.37h19.29c1.57,0,2.84-1.27,2.84-2.84V14.17L28.35,14.17z
			 M22.28,11.62H6.07c1.09-3.44,4.31-5.94,8.1-5.94C17.97,5.68,21.19,8.18,22.28,11.62L22.28,11.62z"/>
	</g>
</g>
</svg>
