<svg width="302" height="302" viewBox="0 0 302 302" fill="none" xmlns="http://www.w3.org/2000/svg">
<path d="M119.227 106.644C116.427 106.644 113.69 107.474 111.362 109.03C109.034 110.585 107.22 112.796 106.148 115.383C105.077 117.97 104.797 120.816 105.343 123.562C105.889 126.308 107.237 128.831 109.217 130.81C111.197 132.79 113.719 134.138 116.465 134.685C119.211 135.231 122.058 134.951 124.644 133.879C127.231 132.808 129.442 130.993 130.998 128.665C132.553 126.337 133.383 123.6 133.383 120.8C133.383 117.046 131.892 113.445 129.237 110.79C126.582 108.136 122.982 106.644 119.227 106.644ZM182.773 106.644C179.973 106.644 177.236 107.474 174.908 109.03C172.58 110.585 170.766 112.796 169.694 115.383C168.623 117.97 168.342 120.816 168.889 123.562C169.435 126.308 170.783 128.831 172.763 130.81C174.743 132.79 177.265 134.138 180.011 134.685C182.757 135.231 185.604 134.951 188.19 133.879C190.777 132.808 192.988 130.993 194.543 128.665C196.099 126.337 196.929 123.6 196.929 120.8C196.929 117.046 195.438 113.445 192.783 110.79C190.128 108.136 186.527 106.644 182.773 106.644ZM273.688 151C273.692 172.182 268.213 193.004 257.783 211.44C247.353 229.876 232.327 245.297 214.169 256.203C196.01 267.109 175.338 273.128 154.163 273.674C132.989 274.22 112.033 269.275 93.3369 259.319L53.1685 272.709C49.8428 273.818 46.2739 273.979 42.8619 273.174C39.4499 272.368 36.3295 270.629 33.8506 268.15C31.3716 265.671 29.632 262.551 28.8268 259.139C28.0216 255.727 28.1825 252.158 29.2916 248.832L42.6811 208.664C33.9296 192.21 29.0415 173.978 28.388 155.353C27.7344 136.728 31.3326 118.199 38.9093 101.172C46.486 84.1452 57.8421 69.0682 72.1157 57.0854C86.3892 45.1027 103.205 36.5292 121.287 32.0157C139.369 27.5022 158.241 27.1673 176.471 31.0365C194.702 34.9056 211.811 42.8772 226.501 54.346C241.191 65.8147 253.075 80.4794 261.251 97.2267C269.427 113.974 273.68 132.364 273.688 151ZM254.812 151C254.808 135.076 251.14 119.366 244.093 105.086C237.045 90.8064 226.807 78.3392 214.17 68.6492C201.533 58.9592 186.837 52.3063 171.217 49.2051C155.598 46.1039 139.474 46.6375 124.094 50.7647C108.714 54.892 94.4893 62.5022 82.5209 73.0065C70.5525 83.5109 61.1611 96.6278 55.0732 111.342C48.9854 126.057 46.3643 141.975 47.4128 157.865C48.4612 173.755 53.1511 189.19 61.1196 202.977C61.7884 204.135 62.2037 205.421 62.3379 206.751C62.4721 208.081 62.3222 209.425 61.8982 210.693L47.1875 254.813L91.3078 240.102C92.2688 239.775 93.2771 239.607 94.2924 239.607C95.9499 239.61 97.5774 240.049 99.0112 240.881C114.793 250.012 132.701 254.825 150.934 254.837C169.167 254.848 187.082 250.058 202.875 240.946C218.669 231.835 231.784 218.725 240.901 202.936C250.019 187.146 254.817 169.233 254.812 151Z" fill="#cdd0d3"/>
<path d="M110.733 125.835C113.061 124.279 116.427 125.322 119.227 125.322C122.982 125.322 130.729 118.146 133.383 120.8C133.383 120.8 133.383 157.314 133.383 161.068C133.383 163.868 132.553 166.605 130.998 168.933C129.442 171.261 127.231 173.076 124.644 174.147C122.058 175.218 119.211 175.499 116.465 174.953C113.719 174.406 111.197 173.058 109.217 171.078C107.237 169.098 105.889 166.576 105.343 163.83C104.797 161.084 105.071 120.8 105.071 120.8C106.142 118.214 108.405 127.39 110.733 125.835Z" fill="#cdd0d3"/>
<path d="M176.674 128.665C179.002 127.11 182.179 123.562 184.979 123.562C188.733 123.562 194.274 118.146 196.929 120.8C196.929 120.8 196.929 157.314 196.929 161.068C196.929 163.868 196.099 166.605 194.543 168.933C192.988 171.261 190.777 173.076 188.19 174.147C185.604 175.218 182.757 175.499 180.011 174.953C177.265 174.406 174.743 173.058 172.763 171.078C170.783 169.098 169.435 166.576 168.889 163.83C168.342 161.084 168.617 120.8 168.617 120.8C169.688 118.214 174.346 130.221 176.674 128.665Z" fill="#cdd0d3"/>
</svg>